<mxfile host="app.diagrams.net" modified="2020-08-04T02:54:47.235Z" agent="5.0 (Windows NT 10.0; Win64; x64) AppleWebKit/537.36 (KHTML, like Gecko) Chrome/84.0.4147.105 Safari/537.36" etag="4d_sLIroE2g-ygxxIC48" version="13.5.9" type="github">
  <diagram id="R2lEEEUBdFMjLlhIrx00" name="Page-1">
    <mxGraphModel dx="1564" dy="858" grid="1" gridSize="10" guides="1" tooltips="1" connect="1" arrows="1" fold="1" page="1" pageScale="1" pageWidth="850" pageHeight="1100" background="none" math="0" shadow="0" extFonts="Permanent Marker^https://fonts.googleapis.com/css?family=Permanent+Marker">
      <root>
        <mxCell id="0" />
        <mxCell id="1" parent="0" />
        <mxCell id="9r2M9VkWoQ5L1ASe89A4-18" value="" style="edgeStyle=entityRelationEdgeStyle;fontSize=12;html=1;endArrow=ERoneToMany;entryX=0;entryY=0.5;entryDx=0;entryDy=0;" edge="1" parent="1" source="9r2M9VkWoQ5L1ASe89A4-24" target="9r2M9VkWoQ5L1ASe89A4-94">
          <mxGeometry width="100" height="100" relative="1" as="geometry">
            <mxPoint x="360" y="740" as="sourcePoint" />
            <mxPoint x="400" y="550" as="targetPoint" />
          </mxGeometry>
        </mxCell>
        <mxCell id="9r2M9VkWoQ5L1ASe89A4-19" value="" style="edgeStyle=entityRelationEdgeStyle;fontSize=12;html=1;endArrow=ERoneToMany;entryX=0;entryY=0.5;entryDx=0;entryDy=0;" edge="1" parent="1" source="9r2M9VkWoQ5L1ASe89A4-37" target="9r2M9VkWoQ5L1ASe89A4-97">
          <mxGeometry width="100" height="100" relative="1" as="geometry">
            <mxPoint x="640" y="556" as="sourcePoint" />
            <mxPoint x="700" y="498" as="targetPoint" />
          </mxGeometry>
        </mxCell>
        <mxCell id="9r2M9VkWoQ5L1ASe89A4-21" value="" style="edgeStyle=entityRelationEdgeStyle;fontSize=12;html=1;endArrow=ERoneToMany;entryX=0;entryY=0.5;entryDx=0;entryDy=0;" edge="1" parent="1" source="9r2M9VkWoQ5L1ASe89A4-37" target="9r2M9VkWoQ5L1ASe89A4-100">
          <mxGeometry width="100" height="100" relative="1" as="geometry">
            <mxPoint x="620" y="620" as="sourcePoint" />
            <mxPoint x="680" y="910" as="targetPoint" />
          </mxGeometry>
        </mxCell>
        <mxCell id="9r2M9VkWoQ5L1ASe89A4-36" value="pertanyaan" style="shape=table;startSize=30;container=1;collapsible=1;childLayout=tableLayout;fixedRows=1;rowLines=0;fontStyle=1;align=center;resizeLast=1;" vertex="1" parent="1">
          <mxGeometry x="410" y="480" width="180" height="220" as="geometry" />
        </mxCell>
        <mxCell id="9r2M9VkWoQ5L1ASe89A4-37" value="" style="shape=partialRectangle;collapsible=0;dropTarget=0;pointerEvents=0;fillColor=none;top=0;left=0;bottom=1;right=0;points=[[0,0.5],[1,0.5]];portConstraint=eastwest;" vertex="1" parent="9r2M9VkWoQ5L1ASe89A4-36">
          <mxGeometry y="30" width="180" height="30" as="geometry" />
        </mxCell>
        <mxCell id="9r2M9VkWoQ5L1ASe89A4-38" value="PK" style="shape=partialRectangle;connectable=0;fillColor=none;top=0;left=0;bottom=0;right=0;fontStyle=1;overflow=hidden;" vertex="1" parent="9r2M9VkWoQ5L1ASe89A4-37">
          <mxGeometry width="30" height="30" as="geometry" />
        </mxCell>
        <mxCell id="9r2M9VkWoQ5L1ASe89A4-39" value="pertanyaan_id" style="shape=partialRectangle;connectable=0;fillColor=none;top=0;left=0;bottom=0;right=0;align=left;spacingLeft=6;fontStyle=5;overflow=hidden;" vertex="1" parent="9r2M9VkWoQ5L1ASe89A4-37">
          <mxGeometry x="30" width="150" height="30" as="geometry" />
        </mxCell>
        <mxCell id="9r2M9VkWoQ5L1ASe89A4-40" value="" style="shape=partialRectangle;collapsible=0;dropTarget=0;pointerEvents=0;fillColor=none;top=0;left=0;bottom=0;right=0;points=[[0,0.5],[1,0.5]];portConstraint=eastwest;" vertex="1" parent="9r2M9VkWoQ5L1ASe89A4-36">
          <mxGeometry y="60" width="180" height="30" as="geometry" />
        </mxCell>
        <mxCell id="9r2M9VkWoQ5L1ASe89A4-41" value="" style="shape=partialRectangle;connectable=0;fillColor=none;top=0;left=0;bottom=0;right=0;editable=1;overflow=hidden;" vertex="1" parent="9r2M9VkWoQ5L1ASe89A4-40">
          <mxGeometry width="30" height="30" as="geometry" />
        </mxCell>
        <mxCell id="9r2M9VkWoQ5L1ASe89A4-42" value="judul" style="shape=partialRectangle;connectable=0;fillColor=none;top=0;left=0;bottom=0;right=0;align=left;spacingLeft=6;overflow=hidden;" vertex="1" parent="9r2M9VkWoQ5L1ASe89A4-40">
          <mxGeometry x="30" width="150" height="30" as="geometry" />
        </mxCell>
        <mxCell id="9r2M9VkWoQ5L1ASe89A4-43" value="" style="shape=partialRectangle;collapsible=0;dropTarget=0;pointerEvents=0;fillColor=none;top=0;left=0;bottom=0;right=0;points=[[0,0.5],[1,0.5]];portConstraint=eastwest;" vertex="1" parent="9r2M9VkWoQ5L1ASe89A4-36">
          <mxGeometry y="90" width="180" height="30" as="geometry" />
        </mxCell>
        <mxCell id="9r2M9VkWoQ5L1ASe89A4-44" value="" style="shape=partialRectangle;connectable=0;fillColor=none;top=0;left=0;bottom=0;right=0;editable=1;overflow=hidden;" vertex="1" parent="9r2M9VkWoQ5L1ASe89A4-43">
          <mxGeometry width="30" height="30" as="geometry" />
        </mxCell>
        <mxCell id="9r2M9VkWoQ5L1ASe89A4-45" value="isi" style="shape=partialRectangle;connectable=0;fillColor=none;top=0;left=0;bottom=0;right=0;align=left;spacingLeft=6;overflow=hidden;" vertex="1" parent="9r2M9VkWoQ5L1ASe89A4-43">
          <mxGeometry x="30" width="150" height="30" as="geometry" />
        </mxCell>
        <mxCell id="9r2M9VkWoQ5L1ASe89A4-46" value="" style="shape=partialRectangle;collapsible=0;dropTarget=0;pointerEvents=0;fillColor=none;top=0;left=0;bottom=0;right=0;points=[[0,0.5],[1,0.5]];portConstraint=eastwest;" vertex="1" parent="9r2M9VkWoQ5L1ASe89A4-36">
          <mxGeometry y="120" width="180" height="30" as="geometry" />
        </mxCell>
        <mxCell id="9r2M9VkWoQ5L1ASe89A4-47" value="" style="shape=partialRectangle;connectable=0;fillColor=none;top=0;left=0;bottom=0;right=0;editable=1;overflow=hidden;" vertex="1" parent="9r2M9VkWoQ5L1ASe89A4-46">
          <mxGeometry width="30" height="30" as="geometry" />
        </mxCell>
        <mxCell id="9r2M9VkWoQ5L1ASe89A4-48" value="tanggal_dibuat" style="shape=partialRectangle;connectable=0;fillColor=none;top=0;left=0;bottom=0;right=0;align=left;spacingLeft=6;overflow=hidden;" vertex="1" parent="9r2M9VkWoQ5L1ASe89A4-46">
          <mxGeometry x="30" width="150" height="30" as="geometry" />
        </mxCell>
        <mxCell id="9r2M9VkWoQ5L1ASe89A4-65" value="" style="shape=partialRectangle;collapsible=0;dropTarget=0;pointerEvents=0;fillColor=none;top=0;left=0;bottom=0;right=0;points=[[0,0.5],[1,0.5]];portConstraint=eastwest;" vertex="1" parent="9r2M9VkWoQ5L1ASe89A4-36">
          <mxGeometry y="150" width="180" height="30" as="geometry" />
        </mxCell>
        <mxCell id="9r2M9VkWoQ5L1ASe89A4-66" value="" style="shape=partialRectangle;connectable=0;fillColor=none;top=0;left=0;bottom=0;right=0;editable=1;overflow=hidden;" vertex="1" parent="9r2M9VkWoQ5L1ASe89A4-65">
          <mxGeometry width="30" height="30" as="geometry" />
        </mxCell>
        <mxCell id="9r2M9VkWoQ5L1ASe89A4-67" value="tanggal_diperbaharui" style="shape=partialRectangle;connectable=0;fillColor=none;top=0;left=0;bottom=0;right=0;align=left;spacingLeft=6;overflow=hidden;" vertex="1" parent="9r2M9VkWoQ5L1ASe89A4-65">
          <mxGeometry x="30" width="150" height="30" as="geometry" />
        </mxCell>
        <mxCell id="9r2M9VkWoQ5L1ASe89A4-94" value="" style="shape=partialRectangle;collapsible=0;dropTarget=0;pointerEvents=0;fillColor=none;top=0;left=0;bottom=0;right=0;points=[[0,0.5],[1,0.5]];portConstraint=eastwest;" vertex="1" parent="9r2M9VkWoQ5L1ASe89A4-36">
          <mxGeometry y="180" width="180" height="30" as="geometry" />
        </mxCell>
        <mxCell id="9r2M9VkWoQ5L1ASe89A4-95" value="FK" style="shape=partialRectangle;connectable=0;fillColor=none;top=0;left=0;bottom=0;right=0;editable=1;overflow=hidden;" vertex="1" parent="9r2M9VkWoQ5L1ASe89A4-94">
          <mxGeometry width="30" height="30" as="geometry" />
        </mxCell>
        <mxCell id="9r2M9VkWoQ5L1ASe89A4-96" value="id_user" style="shape=partialRectangle;connectable=0;fillColor=none;top=0;left=0;bottom=0;right=0;align=left;spacingLeft=6;overflow=hidden;" vertex="1" parent="9r2M9VkWoQ5L1ASe89A4-94">
          <mxGeometry x="30" width="150" height="30" as="geometry" />
        </mxCell>
        <mxCell id="9r2M9VkWoQ5L1ASe89A4-81" value="komentar pertanyaan" style="shape=table;startSize=30;container=1;collapsible=1;childLayout=tableLayout;fixedRows=1;rowLines=0;fontStyle=1;align=center;resizeLast=1;" vertex="1" parent="1">
          <mxGeometry x="660" y="190" width="220" height="190" as="geometry" />
        </mxCell>
        <mxCell id="9r2M9VkWoQ5L1ASe89A4-82" value="" style="shape=partialRectangle;collapsible=0;dropTarget=0;pointerEvents=0;fillColor=none;top=0;left=0;bottom=1;right=0;points=[[0,0.5],[1,0.5]];portConstraint=eastwest;" vertex="1" parent="9r2M9VkWoQ5L1ASe89A4-81">
          <mxGeometry y="30" width="220" height="30" as="geometry" />
        </mxCell>
        <mxCell id="9r2M9VkWoQ5L1ASe89A4-83" value="PK" style="shape=partialRectangle;connectable=0;fillColor=none;top=0;left=0;bottom=0;right=0;fontStyle=1;overflow=hidden;" vertex="1" parent="9r2M9VkWoQ5L1ASe89A4-82">
          <mxGeometry width="30" height="30" as="geometry" />
        </mxCell>
        <mxCell id="9r2M9VkWoQ5L1ASe89A4-84" value="id_komentar_pertanyaan" style="shape=partialRectangle;connectable=0;fillColor=none;top=0;left=0;bottom=0;right=0;align=left;spacingLeft=6;fontStyle=5;overflow=hidden;" vertex="1" parent="9r2M9VkWoQ5L1ASe89A4-82">
          <mxGeometry x="30" width="190" height="30" as="geometry" />
        </mxCell>
        <mxCell id="9r2M9VkWoQ5L1ASe89A4-85" value="" style="shape=partialRectangle;collapsible=0;dropTarget=0;pointerEvents=0;fillColor=none;top=0;left=0;bottom=0;right=0;points=[[0,0.5],[1,0.5]];portConstraint=eastwest;" vertex="1" parent="9r2M9VkWoQ5L1ASe89A4-81">
          <mxGeometry y="60" width="220" height="30" as="geometry" />
        </mxCell>
        <mxCell id="9r2M9VkWoQ5L1ASe89A4-86" value="" style="shape=partialRectangle;connectable=0;fillColor=none;top=0;left=0;bottom=0;right=0;editable=1;overflow=hidden;" vertex="1" parent="9r2M9VkWoQ5L1ASe89A4-85">
          <mxGeometry width="30" height="30" as="geometry" />
        </mxCell>
        <mxCell id="9r2M9VkWoQ5L1ASe89A4-87" value="isi" style="shape=partialRectangle;connectable=0;fillColor=none;top=0;left=0;bottom=0;right=0;align=left;spacingLeft=6;overflow=hidden;" vertex="1" parent="9r2M9VkWoQ5L1ASe89A4-85">
          <mxGeometry x="30" width="190" height="30" as="geometry" />
        </mxCell>
        <mxCell id="9r2M9VkWoQ5L1ASe89A4-88" value="" style="shape=partialRectangle;collapsible=0;dropTarget=0;pointerEvents=0;fillColor=none;top=0;left=0;bottom=0;right=0;points=[[0,0.5],[1,0.5]];portConstraint=eastwest;" vertex="1" parent="9r2M9VkWoQ5L1ASe89A4-81">
          <mxGeometry y="90" width="220" height="30" as="geometry" />
        </mxCell>
        <mxCell id="9r2M9VkWoQ5L1ASe89A4-89" value="" style="shape=partialRectangle;connectable=0;fillColor=none;top=0;left=0;bottom=0;right=0;editable=1;overflow=hidden;" vertex="1" parent="9r2M9VkWoQ5L1ASe89A4-88">
          <mxGeometry width="30" height="30" as="geometry" />
        </mxCell>
        <mxCell id="9r2M9VkWoQ5L1ASe89A4-90" value="tanggal_dibuat" style="shape=partialRectangle;connectable=0;fillColor=none;top=0;left=0;bottom=0;right=0;align=left;spacingLeft=6;overflow=hidden;" vertex="1" parent="9r2M9VkWoQ5L1ASe89A4-88">
          <mxGeometry x="30" width="190" height="30" as="geometry" />
        </mxCell>
        <mxCell id="9r2M9VkWoQ5L1ASe89A4-91" value="" style="shape=partialRectangle;collapsible=0;dropTarget=0;pointerEvents=0;fillColor=none;top=0;left=0;bottom=0;right=0;points=[[0,0.5],[1,0.5]];portConstraint=eastwest;" vertex="1" parent="9r2M9VkWoQ5L1ASe89A4-81">
          <mxGeometry y="120" width="220" height="30" as="geometry" />
        </mxCell>
        <mxCell id="9r2M9VkWoQ5L1ASe89A4-92" value="FK" style="shape=partialRectangle;connectable=0;fillColor=none;top=0;left=0;bottom=0;right=0;editable=1;overflow=hidden;" vertex="1" parent="9r2M9VkWoQ5L1ASe89A4-91">
          <mxGeometry width="30" height="30" as="geometry" />
        </mxCell>
        <mxCell id="9r2M9VkWoQ5L1ASe89A4-93" value="pemberi_komentar_id" style="shape=partialRectangle;connectable=0;fillColor=none;top=0;left=0;bottom=0;right=0;align=left;spacingLeft=6;overflow=hidden;" vertex="1" parent="9r2M9VkWoQ5L1ASe89A4-91">
          <mxGeometry x="30" width="190" height="30" as="geometry" />
        </mxCell>
        <mxCell id="9r2M9VkWoQ5L1ASe89A4-100" value="" style="shape=partialRectangle;collapsible=0;dropTarget=0;pointerEvents=0;fillColor=none;top=0;left=0;bottom=0;right=0;points=[[0,0.5],[1,0.5]];portConstraint=eastwest;" vertex="1" parent="9r2M9VkWoQ5L1ASe89A4-81">
          <mxGeometry y="150" width="220" height="30" as="geometry" />
        </mxCell>
        <mxCell id="9r2M9VkWoQ5L1ASe89A4-101" value="FK" style="shape=partialRectangle;connectable=0;fillColor=none;top=0;left=0;bottom=0;right=0;editable=1;overflow=hidden;" vertex="1" parent="9r2M9VkWoQ5L1ASe89A4-100">
          <mxGeometry width="30" height="30" as="geometry" />
        </mxCell>
        <mxCell id="9r2M9VkWoQ5L1ASe89A4-102" value="pertanyaan_id" style="shape=partialRectangle;connectable=0;fillColor=none;top=0;left=0;bottom=0;right=0;align=left;spacingLeft=6;overflow=hidden;" vertex="1" parent="9r2M9VkWoQ5L1ASe89A4-100">
          <mxGeometry x="30" width="190" height="30" as="geometry" />
        </mxCell>
        <mxCell id="9r2M9VkWoQ5L1ASe89A4-112" value="" style="edgeStyle=entityRelationEdgeStyle;fontSize=12;html=1;endArrow=ERoneToMany;exitX=1;exitY=0.5;exitDx=0;exitDy=0;entryX=0;entryY=0.5;entryDx=0;entryDy=0;" edge="1" parent="1" source="9r2M9VkWoQ5L1ASe89A4-24" target="9r2M9VkWoQ5L1ASe89A4-106">
          <mxGeometry width="100" height="100" relative="1" as="geometry">
            <mxPoint x="375" y="920" as="sourcePoint" />
            <mxPoint x="475" y="820" as="targetPoint" />
          </mxGeometry>
        </mxCell>
        <mxCell id="9r2M9VkWoQ5L1ASe89A4-132" value="" style="edgeStyle=entityRelationEdgeStyle;fontSize=12;html=1;endArrow=ERoneToMany;exitX=1;exitY=0.5;exitDx=0;exitDy=0;entryX=0;entryY=0.5;entryDx=0;entryDy=0;" edge="1" parent="1" source="9r2M9VkWoQ5L1ASe89A4-69" target="9r2M9VkWoQ5L1ASe89A4-129">
          <mxGeometry width="100" height="100" relative="1" as="geometry">
            <mxPoint x="840" y="880" as="sourcePoint" />
            <mxPoint x="850" y="1000" as="targetPoint" />
          </mxGeometry>
        </mxCell>
        <mxCell id="9r2M9VkWoQ5L1ASe89A4-23" value="profile" style="shape=table;startSize=30;container=1;collapsible=1;childLayout=tableLayout;fixedRows=1;rowLines=0;fontStyle=1;align=center;resizeLast=1;" vertex="1" parent="1">
          <mxGeometry x="820" y="520" width="180" height="160" as="geometry" />
        </mxCell>
        <mxCell id="9r2M9VkWoQ5L1ASe89A4-24" value="" style="shape=partialRectangle;collapsible=0;dropTarget=0;pointerEvents=0;fillColor=none;top=0;left=0;bottom=1;right=0;points=[[0,0.5],[1,0.5]];portConstraint=eastwest;" vertex="1" parent="9r2M9VkWoQ5L1ASe89A4-23">
          <mxGeometry y="30" width="180" height="30" as="geometry" />
        </mxCell>
        <mxCell id="9r2M9VkWoQ5L1ASe89A4-25" value="PK" style="shape=partialRectangle;connectable=0;fillColor=none;top=0;left=0;bottom=0;right=0;fontStyle=1;overflow=hidden;" vertex="1" parent="9r2M9VkWoQ5L1ASe89A4-24">
          <mxGeometry width="30" height="30" as="geometry" />
        </mxCell>
        <mxCell id="9r2M9VkWoQ5L1ASe89A4-26" value="id_user" style="shape=partialRectangle;connectable=0;fillColor=none;top=0;left=0;bottom=0;right=0;align=left;spacingLeft=6;fontStyle=5;overflow=hidden;" vertex="1" parent="9r2M9VkWoQ5L1ASe89A4-24">
          <mxGeometry x="30" width="150" height="30" as="geometry" />
        </mxCell>
        <mxCell id="9r2M9VkWoQ5L1ASe89A4-27" value="" style="shape=partialRectangle;collapsible=0;dropTarget=0;pointerEvents=0;fillColor=none;top=0;left=0;bottom=0;right=0;points=[[0,0.5],[1,0.5]];portConstraint=eastwest;" vertex="1" parent="9r2M9VkWoQ5L1ASe89A4-23">
          <mxGeometry y="60" width="180" height="30" as="geometry" />
        </mxCell>
        <mxCell id="9r2M9VkWoQ5L1ASe89A4-28" value="" style="shape=partialRectangle;connectable=0;fillColor=none;top=0;left=0;bottom=0;right=0;editable=1;overflow=hidden;" vertex="1" parent="9r2M9VkWoQ5L1ASe89A4-27">
          <mxGeometry width="30" height="30" as="geometry" />
        </mxCell>
        <mxCell id="9r2M9VkWoQ5L1ASe89A4-29" value="nama lengkap" style="shape=partialRectangle;connectable=0;fillColor=none;top=0;left=0;bottom=0;right=0;align=left;spacingLeft=6;overflow=hidden;" vertex="1" parent="9r2M9VkWoQ5L1ASe89A4-27">
          <mxGeometry x="30" width="150" height="30" as="geometry" />
        </mxCell>
        <mxCell id="9r2M9VkWoQ5L1ASe89A4-30" value="" style="shape=partialRectangle;collapsible=0;dropTarget=0;pointerEvents=0;fillColor=none;top=0;left=0;bottom=0;right=0;points=[[0,0.5],[1,0.5]];portConstraint=eastwest;" vertex="1" parent="9r2M9VkWoQ5L1ASe89A4-23">
          <mxGeometry y="90" width="180" height="30" as="geometry" />
        </mxCell>
        <mxCell id="9r2M9VkWoQ5L1ASe89A4-31" value="" style="shape=partialRectangle;connectable=0;fillColor=none;top=0;left=0;bottom=0;right=0;editable=1;overflow=hidden;" vertex="1" parent="9r2M9VkWoQ5L1ASe89A4-30">
          <mxGeometry width="30" height="30" as="geometry" />
        </mxCell>
        <mxCell id="9r2M9VkWoQ5L1ASe89A4-32" value="alamat email" style="shape=partialRectangle;connectable=0;fillColor=none;top=0;left=0;bottom=0;right=0;align=left;spacingLeft=6;overflow=hidden;" vertex="1" parent="9r2M9VkWoQ5L1ASe89A4-30">
          <mxGeometry x="30" width="150" height="30" as="geometry" />
        </mxCell>
        <mxCell id="9r2M9VkWoQ5L1ASe89A4-33" value="" style="shape=partialRectangle;collapsible=0;dropTarget=0;pointerEvents=0;fillColor=none;top=0;left=0;bottom=0;right=0;points=[[0,0.5],[1,0.5]];portConstraint=eastwest;" vertex="1" parent="9r2M9VkWoQ5L1ASe89A4-23">
          <mxGeometry y="120" width="180" height="30" as="geometry" />
        </mxCell>
        <mxCell id="9r2M9VkWoQ5L1ASe89A4-34" value="" style="shape=partialRectangle;connectable=0;fillColor=none;top=0;left=0;bottom=0;right=0;editable=1;overflow=hidden;" vertex="1" parent="9r2M9VkWoQ5L1ASe89A4-33">
          <mxGeometry width="30" height="30" as="geometry" />
        </mxCell>
        <mxCell id="9r2M9VkWoQ5L1ASe89A4-35" value="photo" style="shape=partialRectangle;connectable=0;fillColor=none;top=0;left=0;bottom=0;right=0;align=left;spacingLeft=6;overflow=hidden;" vertex="1" parent="9r2M9VkWoQ5L1ASe89A4-33">
          <mxGeometry x="30" width="150" height="30" as="geometry" />
        </mxCell>
        <mxCell id="9r2M9VkWoQ5L1ASe89A4-68" value="jawaban" style="shape=table;startSize=30;container=1;collapsible=1;childLayout=tableLayout;fixedRows=1;rowLines=0;fontStyle=1;align=center;resizeLast=1;" vertex="1" parent="1">
          <mxGeometry x="720" y="820" width="180" height="220" as="geometry" />
        </mxCell>
        <mxCell id="9r2M9VkWoQ5L1ASe89A4-69" value="" style="shape=partialRectangle;collapsible=0;dropTarget=0;pointerEvents=0;fillColor=none;top=0;left=0;bottom=1;right=0;points=[[0,0.5],[1,0.5]];portConstraint=eastwest;" vertex="1" parent="9r2M9VkWoQ5L1ASe89A4-68">
          <mxGeometry y="30" width="180" height="30" as="geometry" />
        </mxCell>
        <mxCell id="9r2M9VkWoQ5L1ASe89A4-70" value="PK" style="shape=partialRectangle;connectable=0;fillColor=none;top=0;left=0;bottom=0;right=0;fontStyle=1;overflow=hidden;" vertex="1" parent="9r2M9VkWoQ5L1ASe89A4-69">
          <mxGeometry width="30" height="30" as="geometry" />
        </mxCell>
        <mxCell id="9r2M9VkWoQ5L1ASe89A4-71" value="jawaban_id" style="shape=partialRectangle;connectable=0;fillColor=none;top=0;left=0;bottom=0;right=0;align=left;spacingLeft=6;fontStyle=5;overflow=hidden;" vertex="1" parent="9r2M9VkWoQ5L1ASe89A4-69">
          <mxGeometry x="30" width="150" height="30" as="geometry" />
        </mxCell>
        <mxCell id="9r2M9VkWoQ5L1ASe89A4-72" value="" style="shape=partialRectangle;collapsible=0;dropTarget=0;pointerEvents=0;fillColor=none;top=0;left=0;bottom=0;right=0;points=[[0,0.5],[1,0.5]];portConstraint=eastwest;" vertex="1" parent="9r2M9VkWoQ5L1ASe89A4-68">
          <mxGeometry y="60" width="180" height="30" as="geometry" />
        </mxCell>
        <mxCell id="9r2M9VkWoQ5L1ASe89A4-73" value="" style="shape=partialRectangle;connectable=0;fillColor=none;top=0;left=0;bottom=0;right=0;editable=1;overflow=hidden;" vertex="1" parent="9r2M9VkWoQ5L1ASe89A4-72">
          <mxGeometry width="30" height="30" as="geometry" />
        </mxCell>
        <mxCell id="9r2M9VkWoQ5L1ASe89A4-74" value="isi" style="shape=partialRectangle;connectable=0;fillColor=none;top=0;left=0;bottom=0;right=0;align=left;spacingLeft=6;overflow=hidden;" vertex="1" parent="9r2M9VkWoQ5L1ASe89A4-72">
          <mxGeometry x="30" width="150" height="30" as="geometry" />
        </mxCell>
        <mxCell id="9r2M9VkWoQ5L1ASe89A4-75" value="" style="shape=partialRectangle;collapsible=0;dropTarget=0;pointerEvents=0;fillColor=none;top=0;left=0;bottom=0;right=0;points=[[0,0.5],[1,0.5]];portConstraint=eastwest;" vertex="1" parent="9r2M9VkWoQ5L1ASe89A4-68">
          <mxGeometry y="90" width="180" height="30" as="geometry" />
        </mxCell>
        <mxCell id="9r2M9VkWoQ5L1ASe89A4-76" value="" style="shape=partialRectangle;connectable=0;fillColor=none;top=0;left=0;bottom=0;right=0;editable=1;overflow=hidden;" vertex="1" parent="9r2M9VkWoQ5L1ASe89A4-75">
          <mxGeometry width="30" height="30" as="geometry" />
        </mxCell>
        <mxCell id="9r2M9VkWoQ5L1ASe89A4-77" value="tanggal_dibuat" style="shape=partialRectangle;connectable=0;fillColor=none;top=0;left=0;bottom=0;right=0;align=left;spacingLeft=6;overflow=hidden;" vertex="1" parent="9r2M9VkWoQ5L1ASe89A4-75">
          <mxGeometry x="30" width="150" height="30" as="geometry" />
        </mxCell>
        <mxCell id="9r2M9VkWoQ5L1ASe89A4-78" value="" style="shape=partialRectangle;collapsible=0;dropTarget=0;pointerEvents=0;fillColor=none;top=0;left=0;bottom=0;right=0;points=[[0,0.5],[1,0.5]];portConstraint=eastwest;" vertex="1" parent="9r2M9VkWoQ5L1ASe89A4-68">
          <mxGeometry y="120" width="180" height="30" as="geometry" />
        </mxCell>
        <mxCell id="9r2M9VkWoQ5L1ASe89A4-79" value="" style="shape=partialRectangle;connectable=0;fillColor=none;top=0;left=0;bottom=0;right=0;editable=1;overflow=hidden;" vertex="1" parent="9r2M9VkWoQ5L1ASe89A4-78">
          <mxGeometry width="30" height="30" as="geometry" />
        </mxCell>
        <mxCell id="9r2M9VkWoQ5L1ASe89A4-80" value="tanggal_diperbaharui" style="shape=partialRectangle;connectable=0;fillColor=none;top=0;left=0;bottom=0;right=0;align=left;spacingLeft=6;overflow=hidden;" vertex="1" parent="9r2M9VkWoQ5L1ASe89A4-78">
          <mxGeometry x="30" width="150" height="30" as="geometry" />
        </mxCell>
        <mxCell id="9r2M9VkWoQ5L1ASe89A4-97" value="" style="shape=partialRectangle;collapsible=0;dropTarget=0;pointerEvents=0;fillColor=none;top=0;left=0;bottom=0;right=0;points=[[0,0.5],[1,0.5]];portConstraint=eastwest;" vertex="1" parent="9r2M9VkWoQ5L1ASe89A4-68">
          <mxGeometry y="150" width="180" height="30" as="geometry" />
        </mxCell>
        <mxCell id="9r2M9VkWoQ5L1ASe89A4-98" value="FK" style="shape=partialRectangle;connectable=0;fillColor=none;top=0;left=0;bottom=0;right=0;editable=1;overflow=hidden;" vertex="1" parent="9r2M9VkWoQ5L1ASe89A4-97">
          <mxGeometry width="30" height="30" as="geometry" />
        </mxCell>
        <mxCell id="9r2M9VkWoQ5L1ASe89A4-99" value="pertanyaan_id" style="shape=partialRectangle;connectable=0;fillColor=none;top=0;left=0;bottom=0;right=0;align=left;spacingLeft=6;overflow=hidden;" vertex="1" parent="9r2M9VkWoQ5L1ASe89A4-97">
          <mxGeometry x="30" width="150" height="30" as="geometry" />
        </mxCell>
        <mxCell id="9r2M9VkWoQ5L1ASe89A4-106" value="" style="shape=partialRectangle;collapsible=0;dropTarget=0;pointerEvents=0;fillColor=none;top=0;left=0;bottom=0;right=0;points=[[0,0.5],[1,0.5]];portConstraint=eastwest;" vertex="1" parent="9r2M9VkWoQ5L1ASe89A4-68">
          <mxGeometry y="180" width="180" height="30" as="geometry" />
        </mxCell>
        <mxCell id="9r2M9VkWoQ5L1ASe89A4-107" value="FK" style="shape=partialRectangle;connectable=0;fillColor=none;top=0;left=0;bottom=0;right=0;editable=1;overflow=hidden;" vertex="1" parent="9r2M9VkWoQ5L1ASe89A4-106">
          <mxGeometry width="30" height="30" as="geometry" />
        </mxCell>
        <mxCell id="9r2M9VkWoQ5L1ASe89A4-108" value="pemberi_jawaban_id" style="shape=partialRectangle;connectable=0;fillColor=none;top=0;left=0;bottom=0;right=0;align=left;spacingLeft=6;overflow=hidden;" vertex="1" parent="9r2M9VkWoQ5L1ASe89A4-106">
          <mxGeometry x="30" width="150" height="30" as="geometry" />
        </mxCell>
        <mxCell id="9r2M9VkWoQ5L1ASe89A4-133" value="" style="edgeStyle=entityRelationEdgeStyle;fontSize=12;html=1;endArrow=ERoneToMany;exitX=1;exitY=0.5;exitDx=0;exitDy=0;entryX=0;entryY=0.5;entryDx=0;entryDy=0;" edge="1" parent="1" source="9r2M9VkWoQ5L1ASe89A4-24" target="9r2M9VkWoQ5L1ASe89A4-123">
          <mxGeometry width="100" height="100" relative="1" as="geometry">
            <mxPoint x="1090" y="660" as="sourcePoint" />
            <mxPoint x="1190" y="560" as="targetPoint" />
          </mxGeometry>
        </mxCell>
        <mxCell id="9r2M9VkWoQ5L1ASe89A4-113" value="komentar jawaban" style="shape=table;startSize=30;container=1;collapsible=1;childLayout=tableLayout;fixedRows=1;rowLines=0;fontStyle=1;align=center;resizeLast=1;" vertex="1" parent="1">
          <mxGeometry x="1100" y="750" width="230" height="190" as="geometry" />
        </mxCell>
        <mxCell id="9r2M9VkWoQ5L1ASe89A4-114" value="" style="shape=partialRectangle;collapsible=0;dropTarget=0;pointerEvents=0;fillColor=none;top=0;left=0;bottom=1;right=0;points=[[0,0.5],[1,0.5]];portConstraint=eastwest;" vertex="1" parent="9r2M9VkWoQ5L1ASe89A4-113">
          <mxGeometry y="30" width="230" height="30" as="geometry" />
        </mxCell>
        <mxCell id="9r2M9VkWoQ5L1ASe89A4-115" value="PK" style="shape=partialRectangle;connectable=0;fillColor=none;top=0;left=0;bottom=0;right=0;fontStyle=1;overflow=hidden;" vertex="1" parent="9r2M9VkWoQ5L1ASe89A4-114">
          <mxGeometry width="30" height="30" as="geometry" />
        </mxCell>
        <mxCell id="9r2M9VkWoQ5L1ASe89A4-116" value="id_komentar_jawaban" style="shape=partialRectangle;connectable=0;fillColor=none;top=0;left=0;bottom=0;right=0;align=left;spacingLeft=6;fontStyle=5;overflow=hidden;" vertex="1" parent="9r2M9VkWoQ5L1ASe89A4-114">
          <mxGeometry x="30" width="200" height="30" as="geometry" />
        </mxCell>
        <mxCell id="9r2M9VkWoQ5L1ASe89A4-117" value="" style="shape=partialRectangle;collapsible=0;dropTarget=0;pointerEvents=0;fillColor=none;top=0;left=0;bottom=0;right=0;points=[[0,0.5],[1,0.5]];portConstraint=eastwest;" vertex="1" parent="9r2M9VkWoQ5L1ASe89A4-113">
          <mxGeometry y="60" width="230" height="30" as="geometry" />
        </mxCell>
        <mxCell id="9r2M9VkWoQ5L1ASe89A4-118" value="" style="shape=partialRectangle;connectable=0;fillColor=none;top=0;left=0;bottom=0;right=0;editable=1;overflow=hidden;" vertex="1" parent="9r2M9VkWoQ5L1ASe89A4-117">
          <mxGeometry width="30" height="30" as="geometry" />
        </mxCell>
        <mxCell id="9r2M9VkWoQ5L1ASe89A4-119" value="isi" style="shape=partialRectangle;connectable=0;fillColor=none;top=0;left=0;bottom=0;right=0;align=left;spacingLeft=6;overflow=hidden;" vertex="1" parent="9r2M9VkWoQ5L1ASe89A4-117">
          <mxGeometry x="30" width="200" height="30" as="geometry" />
        </mxCell>
        <mxCell id="9r2M9VkWoQ5L1ASe89A4-120" value="" style="shape=partialRectangle;collapsible=0;dropTarget=0;pointerEvents=0;fillColor=none;top=0;left=0;bottom=0;right=0;points=[[0,0.5],[1,0.5]];portConstraint=eastwest;" vertex="1" parent="9r2M9VkWoQ5L1ASe89A4-113">
          <mxGeometry y="90" width="230" height="30" as="geometry" />
        </mxCell>
        <mxCell id="9r2M9VkWoQ5L1ASe89A4-121" value="" style="shape=partialRectangle;connectable=0;fillColor=none;top=0;left=0;bottom=0;right=0;editable=1;overflow=hidden;" vertex="1" parent="9r2M9VkWoQ5L1ASe89A4-120">
          <mxGeometry width="30" height="30" as="geometry" />
        </mxCell>
        <mxCell id="9r2M9VkWoQ5L1ASe89A4-122" value="tanggal_dibuat" style="shape=partialRectangle;connectable=0;fillColor=none;top=0;left=0;bottom=0;right=0;align=left;spacingLeft=6;overflow=hidden;" vertex="1" parent="9r2M9VkWoQ5L1ASe89A4-120">
          <mxGeometry x="30" width="200" height="30" as="geometry" />
        </mxCell>
        <mxCell id="9r2M9VkWoQ5L1ASe89A4-123" value="" style="shape=partialRectangle;collapsible=0;dropTarget=0;pointerEvents=0;fillColor=none;top=0;left=0;bottom=0;right=0;points=[[0,0.5],[1,0.5]];portConstraint=eastwest;" vertex="1" parent="9r2M9VkWoQ5L1ASe89A4-113">
          <mxGeometry y="120" width="230" height="30" as="geometry" />
        </mxCell>
        <mxCell id="9r2M9VkWoQ5L1ASe89A4-124" value="FK" style="shape=partialRectangle;connectable=0;fillColor=none;top=0;left=0;bottom=0;right=0;editable=1;overflow=hidden;" vertex="1" parent="9r2M9VkWoQ5L1ASe89A4-123">
          <mxGeometry width="30" height="30" as="geometry" />
        </mxCell>
        <mxCell id="9r2M9VkWoQ5L1ASe89A4-125" value="pemberi_komentar_id" style="shape=partialRectangle;connectable=0;fillColor=none;top=0;left=0;bottom=0;right=0;align=left;spacingLeft=6;overflow=hidden;" vertex="1" parent="9r2M9VkWoQ5L1ASe89A4-123">
          <mxGeometry x="30" width="200" height="30" as="geometry" />
        </mxCell>
        <mxCell id="9r2M9VkWoQ5L1ASe89A4-129" value="" style="shape=partialRectangle;collapsible=0;dropTarget=0;pointerEvents=0;fillColor=none;top=0;left=0;bottom=0;right=0;points=[[0,0.5],[1,0.5]];portConstraint=eastwest;" vertex="1" parent="9r2M9VkWoQ5L1ASe89A4-113">
          <mxGeometry y="150" width="230" height="30" as="geometry" />
        </mxCell>
        <mxCell id="9r2M9VkWoQ5L1ASe89A4-130" value="FK" style="shape=partialRectangle;connectable=0;fillColor=none;top=0;left=0;bottom=0;right=0;editable=1;overflow=hidden;" vertex="1" parent="9r2M9VkWoQ5L1ASe89A4-129">
          <mxGeometry width="30" height="30" as="geometry" />
        </mxCell>
        <mxCell id="9r2M9VkWoQ5L1ASe89A4-131" value="jawaban_id" style="shape=partialRectangle;connectable=0;fillColor=none;top=0;left=0;bottom=0;right=0;align=left;spacingLeft=6;overflow=hidden;" vertex="1" parent="9r2M9VkWoQ5L1ASe89A4-129">
          <mxGeometry x="30" width="200" height="30" as="geometry" />
        </mxCell>
        <mxCell id="9r2M9VkWoQ5L1ASe89A4-134" value="" style="edgeStyle=entityRelationEdgeStyle;fontSize=12;html=1;endArrow=ERoneToMany;exitX=1;exitY=0.25;exitDx=0;exitDy=0;entryX=0;entryY=0.5;entryDx=0;entryDy=0;" edge="1" parent="1" source="9r2M9VkWoQ5L1ASe89A4-23" target="9r2M9VkWoQ5L1ASe89A4-91">
          <mxGeometry width="100" height="100" relative="1" as="geometry">
            <mxPoint x="960" y="335" as="sourcePoint" />
            <mxPoint x="1020" y="235" as="targetPoint" />
          </mxGeometry>
        </mxCell>
      </root>
    </mxGraphModel>
  </diagram>
</mxfile>
